<?xml version="1.0" encoding="utf-8"?>
<!-- Generator: Adobe Illustrator 23.0.1, SVG Export Plug-In . SVG Version: 6.00 Build 0)  -->
<svg version="1.1" id="Capa_1" xmlns="http://www.w3.org/2000/svg" xmlns:xlink="http://www.w3.org/1999/xlink" x="0px" y="0px"
	 viewBox="0 0 450.4 450.4" style="enable-background:new 0 0 450.4 450.4;" xml:space="preserve">
<style type="text/css">
	.st0{display:none;}
	.st1{display:inline;}
	.st2{fill:#29275B;}
</style>
<g class="st0">
	<g class="st1">
		<path d="M143.7,350.3c-26,0-47,21.1-47,47c0,26,21.1,47,47,47c26,0,47-21.1,47-47S169.6,350.3,143.7,350.3z M143.7,423.5
			c-14.4,0-26.1-11.7-26.1-26.1s11.7-26.1,26.1-26.1s26.1,11.7,26.1,26.1S158.1,423.5,143.7,423.5z"/>
		<path d="M342.2,350.3c-26,0-47,21.1-47,47c0,26,21.1,47,47,47s47-21.1,47-47S368.2,350.3,342.2,350.3z M342.2,423.5
			c-14.4,0-26.1-11.7-26.1-26.1s11.7-26.1,26.1-26.1s26.1,11.7,26.1,26.1C368.3,411.8,356.6,423.5,342.2,423.5z"/>
		<path d="M448.3,76c-2.2-2.4-5.2-3.9-8.4-4.2L99.8,67.2l-9.4-28.7C83.8,19.2,65.8,6.2,45.5,6h-35C4.7,6,0,10.7,0,16.5
			s4.7,10.4,10.4,10.4h35c11.4,0.3,21.4,7.5,25.1,18.3l66.4,200.1l-5.2,12c-5.8,15-4.1,31.9,4.7,45.5c8.7,13.3,23.3,21.5,39.2,21.9
			h203.2c5.8,0,10.4-4.7,10.4-10.4s-4.7-10.4-10.4-10.4H175.5c-9-0.2-17.2-4.9-21.9-12.5c-4.7-7.5-5.7-16.8-2.6-25.1l4.2-9.4l220-23
			c24.2-2.7,44-20.2,49.6-43.9l25.1-105C451,81.9,450.4,78.5,448.3,76z M404.4,185.2c-3.4,15.2-16.3,26.5-31.9,27.7l-217.3,22.5
			L106.6,88.1l320.3,4.7L404.4,185.2z"/>
	</g>
</g>
<g transform="translate(0.000000,123.000000) scale(0.100000,-0.100000)">
	<path class="st2" d="M1473.9,1192.9c-200.1-65.5-592.9-291-647.5-371C695.4,629,640.9,421.7,659.1,170.7
		c54.6-800.2,374.7-1644.1,920.3-2408c269.2-378.3,327.4-447.4,596.5-672.9c203.7-171,596.5-352.8,716.6-327.4
		c29.1,7.3,101.8,21.8,160,32.7c58.2,10.9,149.1,50.9,200.1,83.7c50.9,36.4,141.9,87.3,196.4,116.4
		c156.4,76.4,283.7,243.7,265.5,345.6c-29.1,156.4-272.8,534.7-534.7,833c-138.2,156.4-167.3,171-265.5,152.8
		c-69.1-14.5-192.8-101.8-312.8-221.9c-120-116.4-232.8-200.1-280.1-200.1c-174.6,0-731.1,931.2-862.1,1447.7
		c-94.6,363.7-90.9,385.6,141.9,421.9c61.8,10.9,160,29.1,218.2,40c61.8,14.5,130.9,29.1,156.4,32.7c25.5,3.6,80,36.4,123.7,72.7
		c87.3,76.4,76.4,247.3-43.6,600.2C1863.1,1098.3,1713.9,1269.2,1473.9,1192.9z"/>
</g>
</svg>
