<?xml version="1.0" encoding="utf-8"?>
<!-- Generator: Adobe Illustrator 23.0.1, SVG Export Plug-In . SVG Version: 6.00 Build 0)  -->
<svg version="1.1" id="Layer_1" xmlns="http://www.w3.org/2000/svg" xmlns:xlink="http://www.w3.org/1999/xlink" x="0px" y="0px"
	 viewBox="0 0 1920 251.3" style="enable-background:new 0 0 1920 251.3;" xml:space="preserve">
<style type="text/css">
	.st0{fill:#FFFFFF;}
	.st1{enable-background:new    ;}
	.st2{fill-rule:evenodd;clip-rule:evenodd;fill:#005BAC;}
	.st3{fill-rule:evenodd;clip-rule:evenodd;fill:#F6AC1D;}
	.st4{fill-rule:evenodd;clip-rule:evenodd;fill:#F79F1A;}
	.st5{fill-rule:evenodd;clip-rule:evenodd;fill:#EA001B;}
	.st6{fill-rule:evenodd;clip-rule:evenodd;fill:#FF5F01;}
	.st7{fill:#F79F1A;}
	.st8{fill:#0099DF;}
	.st9{fill:#6C6BBD;}
	.st10{fill:#EB001B;}
	.st11{fill:#231F20;}
	.st12{fill:#253B80;}
	.st13{fill:#179BD7;}
	.st14{fill:#222D65;}
	.st15{fill:#016FD0;}
</style>
<rect x="10" y="32.2" class="st0" width="337.9" height="194.8"/>
<rect x="402.1" y="32.2" class="st0" width="337.9" height="194.8"/>
<rect x="796.7" y="32.2" class="st0" width="337.9" height="194.8"/>
<rect x="1188.8" y="32.2" class="st0" width="337.9" height="194.8"/>
<rect x="1576.1" y="32.2" class="st0" width="337.9" height="194.8"/>
<g id="形状_1_3_" class="st1">
	<g id="形状_1">
		<g>
			<path class="st2" d="M938.6,89l-13.8,84.6h22L960.6,89L938.6,89L938.6,89z M906.3,89l-21,58.2l-2.5-12.5l0,0l-0.5-2.8
				c-2.5-5.5-8.4-15.9-19.5-24.8c-3.3-2.6-6.6-4.9-9.8-6.8l19.1,73.3h23L930,89L906.3,89L906.3,89z M992.3,112.5
				c0-9.6,21.5-8.3,30.9-3.1l3.1-18.2c0,0-9.7-3.7-19.8-3.7c-10.9,0-36.9,4.8-36.9,28c0,21.9,30.5,22.1,30.5,33.6
				c0,11.5-27.3,9.4-36.3,2.2l-3.3,19c0,0,9.8,4.8,24.9,4.8c15,0,37.7-7.8,37.7-29C1023,124.1,992.3,122,992.3,112.5z M1082.2,89
				h-17.7c-8.2,0-10.2,6.3-10.2,6.3l-32.9,78.3h23l4.6-12.6h28l2.6,12.6h20.2L1082.2,89z M1055.3,143.7l11.6-31.7l6.5,31.7H1055.3z"
				/>
		</g>
	</g>
</g>
<g id="形状_1_2_" class="st1">
	<g id="形状_1_1_">
		<g>
			<path class="st3" d="M875.7,97c0,0-0.9-7.6-10.6-7.6h-35.4l-0.4,1.4c0,0,17,3.5,33.3,16.4c15.6,12.4,20.7,27.9,20.7,27.9
				L875.7,97z"/>
		</g>
	</g>
</g>
<g id="g3125" transform="matrix(1.2152823,0,0,1.2152823,-67.025868,-37.711623)">
	<g id="g3115">
		<g id="g3110">
			<path id="path2997" class="st4" d="M285,126.4c0,29.5-23.9,53.4-53.3,53.4s-53.3-23.9-53.3-53.4S202.2,73,231.7,73
				S285,96.9,285,126.4L285,126.4z"/>
			<path id="path2995" class="st5" d="M219.2,126.4c0,29.5-23.9,53.4-53.3,53.4s-53.3-23.9-53.3-53.4S136.4,73,165.9,73
				S219.2,96.9,219.2,126.4L219.2,126.4z"/>
			<path id="path2999" class="st6" d="M198.8,84.3c-12.4,9.8-20.4,25-20.4,42.1s8,32.3,20.4,42.1c12.4-9.8,20.4-25,20.4-42.1
				S211.2,94.1,198.8,84.3z"/>
		</g>
		<g id="g3043" transform="matrix(1.2704171,0,0,1.2704171,507.53053,240.70315)">
			<g id="text3045">
				<path id="path3057" class="st7" d="M-175.2-67.7v-1.5h-0.4l-0.5,1l-0.5-1h-0.4v1.5h0.3v-1.1l0.4,1h0.3l0.4-1v1.1H-175.2z
					 M-177.7-67.7v-1.2h0.5v-0.3h-1.3v0.3h0.5v1.2H-177.7z"/>
			</g>
			<g id="text3047">
			</g>
		</g>
	</g>
	<g id="g3093">
		<g id="g3081">
			<path id="path3006" d="M124.4,206.3h-3v-14.1h3v1.7c0,0,2.6-2.1,4.2-2.1c3,0.1,4.8,2.6,4.8,2.6s1.5-2.6,4.7-2.6
				c4.9,0,5.6,4.5,5.6,4.5v10h-2.9v-8.8c0,0,0-2.7-3.1-2.7c-3.3,0-3.6,2.7-3.6,2.7v8.8h-3v-8.8c0,0-0.3-2.8-3-2.8
				c-3.6,0-3.6,2.8-3.6,2.8L124.4,206.3z"/>
			<path id="path3008" d="M216.5,191.8c-1.5,0-4.2,2.1-4.2,2.1v-1.7h-3v14.1h3l-0.1-8.8c0,0,0.1-2.8,3.6-2.8c0.7,0,1.2,0.2,1.6,0.4
				v0l1-2.7C217.9,192,217.2,191.8,216.5,191.8z"/>
			<path id="path3013" d="M259.1,191.8c-1.5,0-4.2,2.1-4.2,2.1v-1.7h-3v14.1h3l-0.1-8.8c0,0,0.1-2.8,3.6-2.8c0.7,0,1.2,0.2,1.6,0.4
				v0l1-2.7C260.5,192,259.8,191.8,259.1,191.8L259.1,191.8z"/>
			<path id="path3015" d="M153.4,191.7c-4.5,0-6.9,4.1-6.9,7.5c0,3.5,2.7,7.5,7.1,7.5c2.5,0,4.6-1.9,4.6-1.9l0,1.4h3v-14.1h-3v1.8
				C158.2,193.9,156.2,191.7,153.4,191.7L153.4,191.7z M154,194.6c2.4,0,4.4,2.1,4.4,4.7c0,2.6-2,4.7-4.4,4.7s-4.4-2.1-4.4-4.7
				C149.6,196.7,151.6,194.6,154,194.6z"/>
			<path id="path3020" d="M240.3,191.7c-4.5,0-6.9,4.1-6.9,7.5c0,3.5,2.7,7.5,7.1,7.5c2.5,0,4.6-1.9,4.6-1.9l0,1.4h3v-14.1h-3v1.8
				C245,193.9,243.1,191.7,240.3,191.7L240.3,191.7z M240.9,194.6c2.4,0,4.4,2.1,4.4,4.7c0,2.6-2,4.7-4.4,4.7
				c-2.4,0-4.4-2.1-4.4-4.7C236.5,196.7,238.5,194.6,240.9,194.6z"/>
			<path id="path3022" d="M268.9,191.7c-4.5,0-6.9,4.1-6.9,7.5c0,3.5,2.7,7.5,7.1,7.5c2.5,0,4.6-1.9,4.6-1.9l0,1.4h3v-19.7h-3v7.4
				C273.6,193.9,271.7,191.7,268.9,191.7L268.9,191.7z M269.5,194.6c2.4,0,4.4,2.1,4.4,4.7c0,2.6-2,4.7-4.4,4.7
				c-2.4,0-4.4-2.1-4.4-4.7C265.1,196.7,267.1,194.6,269.5,194.6z"/>
			<path id="path3024" d="M170.2,206.7c-3.1,0-5.9-1.9-5.9-1.9l1.3-2c0,0,2.7,1.2,4.6,1.2c1.3,0,3.4-0.4,3.4-1.7
				c0-1.3-3.5-1.7-3.5-1.7s-5.3-0.1-5.3-4.5c0-2.8,2.7-4.5,6.1-4.5c2,0,5.6,1.7,5.6,1.7l-1.5,2.3c0,0-2.8-1.1-4.3-1.2
				c-1.3,0-2.8,0.6-2.8,1.7c0,3,8.8-0.2,8.8,5.8C176.7,206,173.1,206.7,170.2,206.7L170.2,206.7z"/>
			<path id="path3026" d="M181.6,188v4.1H179v3h2.6v7.1c0,0-0.2,4.8,4.9,4.8c1.4,0,4.2-1.1,4.2-1.1l-1.2-3.1c0,0-1.1,0.9-2.4,0.9
				c-2.4-0.1-2.3-1.6-2.3-1.6v-7.1h4.9v-3h-4.9V188H181.6z"/>
			<path id="path3034" d="M199.5,191.9c-4.9,0-7.3,4-7.3,7.5c0,3.6,2.2,7.6,7.6,7.6c2.3,0,5.5-2,5.5-2l-1.4-2.4c0,0-2.2,1.6-4.1,1.6
				c-3.9,0-4.1-3.8-4.1-3.8h10.3C206.1,200.3,206.8,191.9,199.5,191.9z M199.1,194.7c0.1,0,0.2,0,0.4,0c3.6,0,3.6,3.4,3.6,3.4h-7.3
				C195.7,198.1,195.6,194.9,199.1,194.7z"/>
			<path id="path3037" d="M230.3,202.5l1.4,2.8c0,0-2.2,1.4-4.7,1.4c-5.1,0-7.9-3.8-7.9-7.5c0-5.7,4.5-7.4,7.6-7.4
				c2.8,0,5.2,1.6,5.2,1.6l-1.6,2.8c0,0-0.9-1.5-3.7-1.5c-2.7,0-4.2,2.4-4.2,4.6c0,2.5,1.7,4.7,4.2,4.7
				C228.6,204,230.3,202.5,230.3,202.5L230.3,202.5z"/>
		</g>
		<g id="g3064" transform="matrix(1.3613136,0,0,1.3613136,509.49268,379.29888)">
			<g id="text3066">
				<path id="path3078" d="M-166.5-128.5c-0.3,0-0.6,0.1-0.8,0.3c-0.2,0.2-0.3,0.4-0.3,0.7c0,0.3,0.1,0.5,0.3,0.7
					c0.2,0.2,0.5,0.3,0.8,0.3c0.3,0,0.6-0.1,0.8-0.3c0.2-0.2,0.3-0.4,0.3-0.7c0-0.3-0.1-0.5-0.3-0.7
					C-165.9-128.4-166.2-128.5-166.5-128.5z M-166.5-126.7c-0.2,0-0.4-0.1-0.6-0.2c-0.2-0.2-0.2-0.3-0.2-0.6c0-0.2,0.1-0.4,0.2-0.6
					c0.2-0.2,0.3-0.2,0.6-0.2c0.2,0,0.4,0.1,0.6,0.2c0.2,0.2,0.2,0.3,0.2,0.6c0,0.2-0.1,0.4-0.2,0.6S-166.2-126.7-166.5-126.7z
					 M-166.4-128h-0.4v1h0.2v-0.4h0.1l0.3,0.4h0.2l-0.3-0.4c0.1,0,0.2,0,0.2-0.1s0.1-0.1,0.1-0.2c0-0.1,0-0.2-0.1-0.2
					C-166.2-128-166.3-128-166.4-128z M-166.4-127.8c0.1,0,0.1,0,0.1,0s0,0.1,0,0.1c0,0,0,0.1,0,0.1s-0.1,0-0.1,0h-0.2v-0.3H-166.4z
					"/>
			</g>
			<g id="text3068">
			</g>
		</g>
	</g>
</g>
<g transform="translate(-1837.7 -1267.9)">
	<g transform="matrix(3.1437 0 0 3.1437 -1661.1 -866.42)">
		<g transform="matrix(1.25 0 0 -1.25 1176 710.77)">
			<path class="st8" d="M120.9-13.7v0.6h-0.2l-0.2-0.4l-0.2,0.4h-0.2v-0.6h0.1v0.5l0.2-0.4h0.1l0.2,0.4v-0.5H120.9z M119.9-13.7v0.5
				h0.2v0.1h-0.5v-0.1h0.2v-0.5H119.9z"/>
		</g>
		<path class="st9" d="M1303.4,731.4h-18V699h18V731.4z"/>
		<g transform="matrix(1.25 0 0 -1.25 1137.3 698.59)">
			<path class="st10" d="M119.4-13.3c0,5.3,2.5,9.9,6.3,13c-2.8,2.2-6.3,3.5-10.2,3.5C106.4,3.2,99-4.2,99-13.3s7.4-16.5,16.5-16.5
				c3.8,0,7.4,1.3,10.2,3.5C121.9-23.2,119.4-18.5,119.4-13.3"/>
		</g>
		<g transform="matrix(1.25 0 0 -1.25 1176.6 698.59)">
			<path class="st8" d="M120.9-13.3c0-9.1-7.4-16.5-16.5-16.5c-3.8,0-7.4,1.3-10.2,3.5c3.8,3,6.3,7.7,6.3,13s-2.5,9.9-6.3,13
				c2.8,2.2,6.3,3.5,10.2,3.5C113.6,3.2,120.9-4.2,120.9-13.3"/>
		</g>
		<g transform="matrix(1.25 0 0 -1.25 1159.2 722.78)">
			<path class="st11" d="M120.3-14.2c0.2,0,0.5,0,0.7-0.1l-0.3-0.9c-0.2,0.1-0.4,0.1-0.6,0.1c-0.6,0-0.9-0.4-0.9-1.1v-2.5h-1v4.4
				h0.9v-0.5C119.4-14.5,119.7-14.2,120.3-14.2 M116.7-15.2h-1.6v-2c0-0.4,0.2-0.7,0.6-0.7c0.2,0,0.6,0.1,0.8,0.2l0.3-0.8
				c-0.3-0.2-0.8-0.3-1.2-0.3c-1.1,0-1.5,0.6-1.5,1.6v2h-0.9v0.9h0.9v1.3h1v-1.3h1.6V-15.2z M104.6-16.1c0.1,0.6,0.5,1.1,1.2,1.1
				c0.6,0,1-0.4,1.1-1.1H104.6z M107.8-16.5c0,1.4-0.9,2.3-2.1,2.3c-1.3,0-2.2-0.9-2.2-2.3c0-1.4,0.9-2.3,2.2-2.3
				c0.7,0,1.3,0.2,1.8,0.6l-0.5,0.7c-0.4-0.3-0.8-0.5-1.3-0.5c-0.6,0-1.2,0.3-1.3,1.1h3.3C107.8-16.7,107.8-16.6,107.8-16.5
				 M112-15.4c-0.3,0.2-0.8,0.4-1.4,0.4c-0.5,0-0.8-0.2-0.8-0.5c0-0.3,0.3-0.4,0.7-0.4l0.4-0.1c1-0.1,1.5-0.5,1.5-1.3
				c0-0.8-0.7-1.4-2-1.4c-0.7,0-1.4,0.2-1.9,0.6l0.4,0.7c0.3-0.2,0.8-0.5,1.5-0.5c0.7,0,1,0.2,1,0.5c0,0.2-0.2,0.4-0.8,0.5l-0.4,0.1
				c-1,0.1-1.5,0.6-1.5,1.3c0,0.9,0.7,1.4,1.8,1.4c0.7,0,1.3-0.2,1.8-0.5L112-15.4z M123.7-15.1c-0.2,0-0.4,0-0.5-0.1
				c-0.2-0.1-0.3-0.2-0.4-0.3c-0.1-0.1-0.2-0.3-0.3-0.4c-0.1-0.2-0.1-0.4-0.1-0.6c0-0.2,0-0.4,0.1-0.6c0.1-0.2,0.2-0.3,0.3-0.4
				c0.1-0.1,0.3-0.2,0.4-0.3c0.2-0.1,0.4-0.1,0.5-0.1s0.4,0,0.5,0.1c0.2,0.1,0.3,0.2,0.4,0.3c0.1,0.1,0.2,0.3,0.3,0.4
				c0.1,0.2,0.1,0.4,0.1,0.6c0,0.2,0,0.4-0.1,0.6c-0.1,0.2-0.2,0.3-0.3,0.4c-0.1,0.1-0.3,0.2-0.4,0.3
				C124.1-15.1,123.9-15.1,123.7-15.1 M123.7-14.2c0.3,0,0.7-0.1,0.9-0.2c0.3-0.1,0.5-0.3,0.8-0.5c0.2-0.2,0.4-0.5,0.5-0.7
				c0.1-0.3,0.2-0.6,0.2-0.9s-0.1-0.6-0.2-0.9c-0.1-0.3-0.3-0.5-0.5-0.7c-0.2-0.2-0.5-0.4-0.8-0.5c-0.3-0.1-0.6-0.2-0.9-0.2
				c-0.3,0-0.7,0.1-0.9,0.2c-0.3,0.1-0.5,0.3-0.7,0.5c-0.2,0.2-0.4,0.5-0.5,0.7c-0.1,0.3-0.2,0.6-0.2,0.9s0.1,0.6,0.2,0.9
				c0.1,0.3,0.3,0.5,0.5,0.7c0.2,0.2,0.5,0.4,0.7,0.5C123.1-14.3,123.4-14.2,123.7-14.2 M99-16.5c0,0.8,0.5,1.4,1.3,1.4
				c0.8,0,1.3-0.6,1.3-1.4c0-0.8-0.5-1.4-1.3-1.4C99.5-17.9,99-17.3,99-16.5 M102.5-16.5v2.2h-1v-0.5c-0.3,0.4-0.8,0.6-1.4,0.6
				c-1.2,0-2.2-1-2.2-2.3c0-1.3,1-2.3,2.2-2.3c0.6,0,1.1,0.2,1.4,0.6v-0.5h1V-16.5z M97.2-18.7v2.7c0,1-0.7,1.7-1.7,1.7
				c-0.6,0-1.1-0.2-1.5-0.8c-0.3,0.5-0.8,0.8-1.4,0.8c-0.5,0-0.9-0.1-1.3-0.7v0.5h-1v-4.4h1v2.4c0,0.8,0.4,1.2,1.1,1.2
				c0.6,0,1-0.4,1-1.2v-2.4h1v2.4c0,0.8,0.4,1.2,1.1,1.2c0.7,0,1-0.4,1-1.2v-2.4H97.2z"/>
		</g>
		<g transform="matrix(1.25 0 0 -1.25 1167.4 727.74)">
			<path class="st11" d="M120.6-14.4v-0.1h0.1c0,0,0,0,0.1,0c0,0,0,0,0,0c0,0,0,0,0,0C120.7-14.4,120.7-14.4,120.6-14.4L120.6-14.4z
				 M120.7-14.3c0.1,0,0.1,0,0.1,0c0,0,0-0.1,0-0.1c0,0,0-0.1,0-0.1c0,0-0.1,0-0.1,0l0.1-0.2h-0.1l-0.1,0.2h0v-0.2h-0.1v0.4H120.7z
				 M120.7-14.9c0,0,0.1,0,0.1,0c0,0,0.1,0,0.1,0.1c0,0,0.1,0.1,0.1,0.1c0,0,0,0.1,0,0.1s0,0.1,0,0.1c0,0,0,0.1-0.1,0.1
				c0,0-0.1,0.1-0.1,0.1c0,0-0.1,0-0.1,0s-0.1,0-0.1,0c0,0-0.1,0-0.1-0.1c0,0-0.1-0.1-0.1-0.1c0,0,0-0.1,0-0.1s0-0.1,0-0.1
				c0,0,0-0.1,0.1-0.1c0,0,0.1-0.1,0.1-0.1C120.6-14.9,120.6-14.9,120.7-14.9 M120.7-14.1c0.1,0,0.1,0,0.2,0c0.1,0,0.1-0.1,0.1-0.1
				c0,0,0.1-0.1,0.1-0.1c0-0.1,0-0.1,0-0.2c0-0.1,0-0.1,0-0.2c0-0.1-0.1-0.1-0.1-0.1c0,0-0.1-0.1-0.1-0.1c-0.1,0-0.1,0-0.2,0
				c-0.1,0-0.1,0-0.2,0s-0.1,0.1-0.1,0.1c0,0-0.1,0.1-0.1,0.1c0,0.1,0,0.1,0,0.2c0,0.1,0,0.1,0,0.2c0,0.1,0.1,0.1,0.1,0.1
				c0,0,0.1,0.1,0.1,0.1C120.5-14.1,120.6-14.1,120.7-14.1"/>
		</g>
	</g>
</g>
<path class="st12" d="M1307.6,110.2h-17.2c-1.2,0-2.2,0.9-2.4,2l-7,44.1c-0.1,0.8,0.4,1.5,1.2,1.6c0.1,0,0.1,0,0.2,0h8.2
	c1.2,0,2.2-0.9,2.4-2l1.9-11.9c0.2-1.2,1.2-2,2.4-2h5.5c11.3,0,17.9-5.5,19.6-16.4c0.8-4.8,0-8.5-2.2-11.1
	C1317.7,111.7,1313.4,110.2,1307.6,110.2z M1309.6,126.3c-0.9,6.2-5.7,6.2-10.2,6.2h-2.6l1.8-11.5c0.1-0.7,0.7-1.2,1.4-1.2h1.2
	c3.1,0,6,0,7.6,1.8C1309.6,122.6,1309.9,124.1,1309.6,126.3z M1359.1,126.1h-8.2c-0.7,0-1.3,0.5-1.4,1.2l-0.4,2.3l-0.6-0.8
	c-1.8-2.6-5.8-3.5-9.7-3.5c-9.1,0-16.9,6.9-18.4,16.6c-0.8,4.8,0.3,9.4,3.1,12.7c2.5,3,6.1,4.2,10.4,4.2c7.3,0,11.4-4.7,11.4-4.7
	l-0.4,2.3c-0.1,0.8,0.4,1.5,1.2,1.6c0.1,0,0.1,0,0.2,0h7.4c1.2,0,2.2-0.9,2.4-2l4.5-28.2c0.1-0.8-0.4-1.5-1.2-1.6
	C1359.2,126.1,1359.1,126.1,1359.1,126.1z M1347.6,142.2c-0.8,4.7-4.5,7.9-9.3,7.9c-2.4,0-4.3-0.8-5.5-2.2c-1.2-1.4-1.7-3.5-1.3-5.8
	c0.7-4.7,4.5-7.9,9.2-7.9c2.3,0,4.2,0.8,5.5,2.2C1347.4,137.8,1347.9,139.9,1347.6,142.2z M1403,126.1h-8.3c-0.8,0-1.5,0.4-2,1
	l-11.4,16.8l-4.8-16.2c-0.3-1-1.2-1.7-2.3-1.7h-8.1c-0.8,0-1.4,0.6-1.4,1.4c0,0.2,0,0.3,0.1,0.5l9.1,26.8l-8.6,12.1
	c-0.5,0.6-0.3,1.5,0.3,2c0.2,0.2,0.5,0.3,0.8,0.3h8.3c0.8,0,1.5-0.4,2-1l27.6-39.8c0.5-0.7,0.3-1.5-0.4-2
	C1403.5,126.2,1403.3,126.1,1403,126.1L1403,126.1z"/>
<path class="st13" d="M1430.4,110.2h-17.2c-1.2,0-2.2,0.9-2.4,2l-7,44.1c-0.1,0.8,0.4,1.5,1.2,1.6c0.1,0,0.1,0,0.2,0h8.8
	c0.8,0,1.5-0.6,1.7-1.4l2-12.5c0.2-1.2,1.2-2,2.4-2h5.4c11.3,0,17.9-5.5,19.6-16.4c0.8-4.8,0-8.5-2.2-11.1
	C1440.5,111.7,1436.2,110.2,1430.4,110.2z M1432.4,126.3c-0.9,6.2-5.7,6.2-10.2,6.2h-2.6l1.8-11.5c0.1-0.7,0.7-1.2,1.4-1.2h1.2
	c3.1,0,6,0,7.6,1.8C1432.4,122.6,1432.7,124.1,1432.4,126.3z M1481.9,126.1h-8.2c-0.7,0-1.3,0.5-1.4,1.2l-0.4,2.3l-0.6-0.8
	c-1.8-2.6-5.8-3.5-9.7-3.5c-9.1,0-16.9,6.9-18.4,16.6c-0.8,4.8,0.3,9.4,3.1,12.7c2.5,3,6.1,4.2,10.4,4.2c7.3,0,11.4-4.7,11.4-4.7
	l-0.4,2.3c-0.1,0.8,0.4,1.5,1.2,1.6c0.1,0,0.2,0,0.2,0h7.4c1.2,0,2.2-0.9,2.4-2l4.5-28.2c0.1-0.8-0.4-1.5-1.2-1.6
	C1482,126.1,1481.9,126.1,1481.9,126.1z M1470.4,142.2c-0.8,4.7-4.5,7.9-9.3,7.9c-2.4,0-4.3-0.8-5.5-2.2c-1.2-1.4-1.7-3.5-1.3-5.8
	c0.7-4.7,4.5-7.9,9.2-7.9c2.3,0,4.2,0.8,5.5,2.2C1470.2,137.8,1470.7,139.9,1470.4,142.2z M1491.6,111.4l-7.1,45
	c-0.1,0.8,0.4,1.5,1.2,1.6c0.1,0,0.1,0,0.2,0h7.1c1.2,0,2.2-0.9,2.4-2l7-44.1c0.1-0.8-0.4-1.5-1.2-1.6c-0.1,0-0.1,0-0.2,0h-8
	C1492.3,110.2,1491.7,110.7,1491.6,111.4z"/>
<path class="st12" d="M1222.1,166.6l1.3-8.4l-2.9-0.1h-14l9.7-61.7c0.1-0.4,0.4-0.7,0.8-0.7h23.6c7.8,0,13.2,1.6,16.1,4.9
	c1.3,1.5,2.2,3.1,2.6,4.8c0.4,1.8,0.4,4,0,6.7l0,0.2v1.7l1.3,0.8c1,0.5,1.9,1.2,2.7,2c1.1,1.3,1.9,2.9,2.2,4.9
	c0.3,2,0.2,4.4-0.3,7.1c-0.6,3.1-1.6,5.8-2.9,8c-1.2,2-2.7,3.7-4.6,5c-1.8,1.2-3.8,2.2-6.2,2.8c-2.3,0.6-4.9,0.9-7.7,0.9h-1.8
	c-1.3,0-2.6,0.5-3.6,1.3c-1,0.9-1.7,2-1.9,3.3l-0.1,0.8l-2.3,14.7l-0.1,0.5c0,0.2-0.1,0.3-0.1,0.3c-0.1,0.1-0.2,0.1-0.2,0.1
	C1233.5,166.6,1222.1,166.6,1222.1,166.6z"/>
<path class="st13" d="M1261.9,112.5c-0.1,0.5-0.2,0.9-0.2,1.4c-3.1,16-13.8,21.5-27.4,21.5h-6.9c-1.7,0-3.1,1.2-3.3,2.8l-3.5,22.5
	l-1,6.4c-0.2,1,0.5,1.9,1.5,2c0.1,0,0.2,0,0.3,0h12.3c1.5,0,2.7-1.1,2.9-2.5l0.1-0.6l2.3-14.7l0.1-0.8c0.2-1.4,1.5-2.5,2.9-2.5h1.8
	c11.9,0,21.2-4.8,23.9-18.8c1.1-5.8,0.5-10.7-2.5-14.2C1264.3,114,1263.1,113.2,1261.9,112.5z"/>
<path class="st14" d="M1258.6,111.2c-1-0.3-2-0.5-3-0.7c-2-0.3-4.1-0.5-6.1-0.4H1231c-1.5,0-2.7,1.1-2.9,2.5l-3.9,24.9l-0.1,0.7
	c0.3-1.6,1.7-2.9,3.3-2.8h6.9c13.6,0,24.3-5.5,27.4-21.5c0.1-0.5,0.2-0.9,0.2-1.4c-0.8-0.4-1.7-0.8-2.6-1.1
	C1259.1,111.3,1258.8,111.3,1258.6,111.2z"/>
<path class="st12" d="M1228,112.6c0.2-1.4,1.5-2.5,2.9-2.5h18.5c2.2,0,4.2,0.1,6.1,0.4c1.3,0.2,2.5,0.5,3.7,0.9
	c0.9,0.3,1.8,0.7,2.6,1.1c0.9-5.9,0-9.9-3.2-13.6c-3.5-4-9.9-5.7-18-5.7H1217c-1.7,0-3.1,1.2-3.3,2.9l-9.8,62.3
	c-0.2,1.1,0.6,2.1,1.7,2.3c0.1,0,0.2,0,0.3,0h14.6l3.7-23.2C1224.1,137.5,1228,112.6,1228,112.6z"/>
<g>
	<path id="path3046" class="st15" d="M1620.9,86.2l-15.5,36h10.1l2.9-7.2h16.6l2.8,7.2h10.3l-15.5-36L1620.9,86.2L1620.9,86.2z
		 M1626.6,94.5l5.1,12.6h-10.1L1626.6,94.5z"/>
	<path id="path3048" class="st15" d="M1649.2,122.1v-36l14.3,0.1l8.3,23.2l8.1-23.2h14.2v36h-9V95.6l-9.5,26.5h-7.9l-9.6-26.5v26.5
		H1649.2z"/>
	<path id="path3050" class="st15" d="M1700.3,122.1v-36h29.3v8h-20.3v6.2h19.8v7.6h-19.8v6.4h20.3v7.8L1700.3,122.1z"/>
	<path id="path3052" class="st15" d="M1734.8,86.2v36h9v-12.8h3.8l10.8,12.8h11l-11.8-13.3c4.9-0.4,9.9-4.6,9.9-11
		c0-7.6-5.9-11.7-12.6-11.7L1734.8,86.2L1734.8,86.2z M1743.8,94.2h10.3c2.5,0,4.3,1.9,4.3,3.8c0,2.4-2.3,3.8-4.1,3.8h-10.4V94.2
		L1743.8,94.2z"/>
	<path id="path3054" class="st15" d="M1780.3,122.1h-9.2v-36h9.2V122.1z"/>
	<path id="path3056" class="st15" d="M1802,122.1h-2c-9.6,0-15.4-7.6-15.4-17.8c0-10.5,5.8-18.1,17.9-18.1h9.9v8.5h-10.3
		c-4.9,0-8.4,3.8-8.4,9.7c0,7,4,9.9,9.7,9.9h2.4L1802,122.1z"/>
	<path id="path3058" class="st15" d="M1821.6,86.2l-15.5,36h10.1l2.9-7.2h16.6l2.8,7.2h10.3l-15.5-36L1821.6,86.2L1821.6,86.2z
		 M1827.3,94.5l5.1,12.6h-10.1L1827.3,94.5L1827.3,94.5z"/>
	<path id="path3060" class="st15" d="M1849.8,122.1v-36h11.4l14.6,22.6V86.2h9v36h-11.1l-15-23.2v23.2H1849.8z"/>
</g>
<g>
	<path id="path3062" class="st15" d="M1641.8,173.4v-36h29.3v8h-20.3v6.2h19.8v7.6h-19.8v6.4h20.3v7.8L1641.8,173.4z"/>
	<path id="path3064" class="st15" d="M1785.6,173.4v-36h29.3v8h-20.3v6.2h19.7v7.6h-19.7v6.4h20.3v7.8L1785.6,173.4z"/>
	<path id="path3066" class="st15" d="M1672.3,173.4l14.3-17.8l-14.6-18.2h11.3l8.7,11.3l8.7-11.3h10.9l-14.4,18l14.3,18h-11.3
		l-8.5-11.1l-8.3,11.1L1672.3,173.4z"/>
	<path id="path3068" class="st15" d="M1712.6,137.5v36h9.2v-11.4h9.5c8,0,14.1-4.2,14.1-12.5c0-6.8-4.8-12.1-12.9-12.1H1712.6
		L1712.6,137.5z M1721.8,145.6h10c2.6,0,4.4,1.6,4.4,4.1c0,2.4-1.8,4.1-4.5,4.1h-9.9V145.6L1721.8,145.6z"/>
	<path id="path3072" class="st15" d="M1749.2,137.5v36h9v-12.8h3.8l10.8,12.8h11l-11.8-13.3c4.9-0.4,9.9-4.6,9.9-11
		c0-7.6-5.9-11.7-12.6-11.7L1749.2,137.5L1749.2,137.5z M1758.2,145.5h10.3c2.5,0,4.3,1.9,4.3,3.8c0,2.4-2.3,3.8-4.1,3.8h-10.4
		V145.5z"/>
	<path id="path3074" class="st15" d="M1819.1,173.4v-7.8h18c2.7,0,3.8-1.4,3.8-3c0-1.5-1.1-3-3.8-3h-8.1c-7.1,0-11-4.3-11-10.8
		c0-5.8,3.6-11.3,14.1-11.3h17.5l-3.8,8.1h-15.1c-2.9,0-3.8,1.5-3.8,3c0,1.5,1.1,3.1,3.3,3.1h8.5c7.9,0,11.3,4.5,11.3,10.3
		c0,6.3-3.8,11.4-11.7,11.4H1819.1z"/>
	<path id="path3076" class="st15" d="M1852.1,173.4v-7.8h18c2.7,0,3.8-1.4,3.8-3c0-1.5-1.1-3-3.8-3h-8.1c-7.1,0-11-4.3-11-10.8
		c0-5.8,3.6-11.3,14.1-11.3h17.5l-3.8,8.1h-15.1c-2.9,0-3.8,1.5-3.8,3c0,1.5,1.1,3.1,3.3,3.1h8.5c7.9,0,11.3,4.5,11.3,10.3
		c0,6.3-3.8,11.4-11.7,11.4H1852.1z"/>
</g>
</svg>
