<svg width="56" height="56" viewBox="0 0 56 56" fill="none" xmlns="http://www.w3.org/2000/svg">
<path d="M13.6357 45.6345C11.8145 45.6345 10.2682 44.9975 8.99682 43.7237C7.72546 42.4498 7.08978 40.903 7.08978 39.0832H3.14108V14.718C3.14108 13.5393 3.54942 12.5417 4.36608 11.725C5.18275 10.9083 6.18039 10.5 7.35899 10.5H39.1282V19.3846H45.3204L52.8589 29.4808V39.0832H48.641C48.641 40.903 48.0036 42.4498 46.7287 43.7237C45.4538 44.9975 43.9057 45.6345 42.0845 45.6345C40.2632 45.6345 38.7169 44.9975 37.4456 43.7237C36.1742 42.4498 35.5385 40.903 35.5385 39.0832H20.1923C20.1923 40.908 19.5548 42.4561 18.2799 43.7274C17.0051 44.9988 15.457 45.6345 13.6357 45.6345ZM13.641 42.1346C14.4966 42.1346 15.219 41.8399 15.8083 41.2506C16.3977 40.6613 16.6923 39.9388 16.6923 39.0832C16.6923 38.2277 16.3977 37.5052 15.8083 36.9159C15.219 36.3266 14.4966 36.0319 13.641 36.0319C12.7854 36.0319 12.063 36.3266 11.4736 36.9159C10.8843 37.5052 10.5897 38.2277 10.5897 39.0832C10.5897 39.9388 10.8843 40.6613 11.4736 41.2506C12.063 41.8399 12.7854 42.1346 13.641 42.1346ZM6.64102 35.5833H8.3282C8.82473 34.7188 9.54192 33.9941 10.4798 33.4092C11.4176 32.8244 12.4714 32.532 13.641 32.532C14.7808 32.532 15.827 32.8207 16.7798 33.3981C17.7326 33.9754 18.4573 34.7038 18.9538 35.5833H35.6283V13.9999H7.35899C7.17952 13.9999 7.01498 14.0747 6.86537 14.2243C6.71581 14.3739 6.64102 14.5385 6.64102 14.718V35.5833ZM42.0898 42.1346C42.9453 42.1346 43.6678 41.8399 44.2571 41.2506C44.8464 40.6613 45.1411 39.9388 45.1411 39.0832C45.1411 38.2277 44.8464 37.5052 44.2571 36.9159C43.6678 36.3266 42.9453 36.0319 42.0898 36.0319C41.2342 36.0319 40.5117 36.3266 39.9224 36.9159C39.3331 37.5052 39.0384 38.2277 39.0384 39.0832C39.0384 39.9388 39.3331 40.6613 39.9224 41.2506C40.5117 41.8399 41.2342 42.1346 42.0898 42.1346ZM39.1282 30.9167H49.5833L43.5256 22.8845H39.1282V30.9167Z" fill="black"/>
</svg>
