<svg width="56" height="56" viewBox="0 0 56 56" fill="none" xmlns="http://www.w3.org/2000/svg">
<rect width="56" height="56" fill="#A3A3A3"/>
<g id="HomePage" clip-path="url(#clip0_28330_3544)">
<rect width="1900" height="3454" transform="translate(-1328 -644)" fill="white"/>
<g id="USP BAR">
<g clip-path="url(#clip1_28330_3544)">
<rect x="-1062" y="-8" width="1368" height="72" rx="5" fill="#FAFAFA"/>
<g id="Reviews">
<g id="Image Group">
<g clip-path="url(#clip2_28330_3544)">
<g id="reviews_FILL0_wght300_GRAD0_opsz24">
<path id="Vector" d="M21.6911 32.577L28 28.7495L34.3089 32.577L32.6352 25.402L38.2307 20.5784L30.8673 19.9591L28 13.1925L25.1327 19.9591L17.7692 20.5784L23.3648 25.402L21.6911 32.577ZM5.83337 49.0897V10.0515C5.83337 8.87282 6.24171 7.87516 7.05837 7.0585C7.87504 6.24183 8.8727 5.8335 10.0513 5.8335H45.9486C47.1273 5.8335 48.1249 6.24183 48.9416 7.0585C49.7583 7.87516 50.1666 8.87282 50.1666 10.0515V36.6154C50.1666 37.7941 49.7583 38.7917 48.9416 39.6084C48.1249 40.425 47.1273 40.8334 45.9486 40.8334H14.0898L5.83337 49.0897ZM12.6 37.3334H45.9486C46.1281 37.3334 46.2927 37.2587 46.4423 37.1091C46.5919 36.9595 46.6667 36.7949 46.6667 36.6154V10.0515C46.6667 9.87195 46.5919 9.7074 46.4423 9.55779C46.2927 9.40822 46.1281 9.33344 45.9486 9.33344H10.0513C9.87183 9.33344 9.70727 9.40822 9.55767 9.55779C9.4081 9.7074 9.33332 9.87195 9.33332 10.0515V40.5642L12.6 37.3334Z" fill="black"/>
</g>
</g>
</g>
</g>
</g>
</g>
</g>
<defs>
<clipPath id="clip0_28330_3544">
<rect width="1900" height="3454" fill="white" transform="translate(-1328 -644)"/>
</clipPath>
<clipPath id="clip1_28330_3544">
<rect x="-1062" y="-8" width="1368" height="72" rx="5" fill="white"/>
</clipPath>
<clipPath id="clip2_28330_3544">
<rect width="56" height="56" rx="28" fill="white"/>
</clipPath>
</defs>
</svg>
